<svg id="Bildmaterial_1" data-name="Bildmaterial 1" xmlns="http://www.w3.org/2000/svg" xmlns:xlink="http://www.w3.org/1999/xlink" width="28.667" height="28.665" viewBox="0 0 28.667 28.665">
  <defs>
    <clipPath id="clip-path">
      <rect id="Rectangle_617" data-name="Rectangle 617" width="28.667" height="28.665" fill="none"/>
    </clipPath>
  </defs>
  <g id="Group_62" data-name="Group 62" transform="translate(0 0)" clip-path="url(#clip-path)">
    <path id="Path_37" data-name="Path 37" d="M28.661,11.011a.454.454,0,0,0-.022-.1.476.476,0,0,0-.028-.084l-.05-.073-.062-.073-.017-.022L23.885,7.1V3.4a1.433,1.433,0,0,0-1.433-1.433H17.278L15.207.356a1.417,1.417,0,0,0-1.741,0L11.394,1.963H6.209A1.433,1.433,0,0,0,4.776,3.4V7.1L.185,10.664l-.017.022-.062.073-.05.073a.47.47,0,0,0-.028.084.453.453,0,0,0-.022.1c0,.011-.006.017-.006.028V27.287a1.417,1.417,0,0,0,.28.845v.011l.017.011a1.428,1.428,0,0,0,1.137.565h25.8a1.428,1.428,0,0,0,1.131-.565l.011-.011v-.011a1.417,1.417,0,0,0,.28-.845V11.039c0-.011-.006-.017-.006-.028m-14.6-9.9a.459.459,0,0,1,.571,0l1.1.857H12.945ZM1.551,27.763l12.5-9.7a.459.459,0,0,1,.571,0l12.491,9.7Zm26.158-.745L15.2,17.3a1.417,1.417,0,0,0-1.741,0L.952,27.018V11.767l7.833,6.08a.479.479,0,0,0,.588-.756L1.417,10.916,4.776,8.3v3.69a.479.479,0,1,0,.957,0V3.4a.476.476,0,0,1,.476-.476H22.452a.476.476,0,0,1,.476.476V12a.479.479,0,1,0,.957,0V8.307l3.359,2.615L19.283,17.1a.477.477,0,1,0,.582.756l7.844-6.092Z" transform="translate(0 -0.054)" fill="#fff"/>
    <path id="Path_38" data-name="Path 38" d="M165.067,75.848V73.933a5.733,5.733,0,1,0-5.733,5.733.479.479,0,0,0,0-.957,4.776,4.776,0,1,1,4.776-4.776v1.909a.957.957,0,1,1-1.909,0V73.933a.479.479,0,0,0-.957,0,1.909,1.909,0,1,1-1.909-1.909.479.479,0,0,0,0-.957,2.867,2.867,0,1,0,1.932,4.977,1.9,1.9,0,1,0,3.8-.2" transform="translate(-145 -64.382)" fill="#fff"/>
  </g>
</svg>
