<svg id="Bildmaterial_2" data-name="Bildmaterial 2" xmlns="http://www.w3.org/2000/svg" xmlns:xlink="http://www.w3.org/1999/xlink" width="28.672" height="28.669" viewBox="0 0 28.672 28.669">
  <defs>
    <clipPath id="clip-path">
      <rect id="Rectangle_621" data-name="Rectangle 621" width="28.672" height="28.669" fill="none"/>
    </clipPath>
  </defs>
  <g id="Group_66" data-name="Group 66" transform="translate(0 0)" clip-path="url(#clip-path)">
    <path id="Path_49" data-name="Path 49" d="M27.876,22.131l-5.8-3.869a1.7,1.7,0,0,0-2.268.37L18.117,20.8a.722.722,0,0,1-.924.2l-.319-.179a19.594,19.594,0,0,1-5.067-3.975,19.14,19.14,0,0,1-3.975-5.067l-.174-.319a.722.722,0,0,1,.19-.929l2.172-1.691a1.7,1.7,0,0,0,.37-2.268L6.511.766A1.685,1.685,0,0,0,4.243.256L1.819,1.712A3.421,3.421,0,0,0,.251,3.739C-.622,6.925.033,12.417,8.129,20.513c6.444,6.439,11.237,8.169,14.529,8.169a8.466,8.466,0,0,0,2.245-.291,3.421,3.421,0,0,0,2.027-1.562L28.391,24.4a1.685,1.685,0,0,0-.51-2.273m-.314,1.78-1.456,2.424a2.469,2.469,0,0,1-1.456,1.131c-2.939.806-8.074.14-15.845-7.631S.369,6.93,1.175,3.991A2.475,2.475,0,0,1,2.306,2.535L4.73,1.079a.733.733,0,0,1,.985.224l2.1,3.158L9.579,7.109a.733.733,0,0,1-.162.985L7.244,9.786A1.674,1.674,0,0,0,6.8,11.93l.174.314a20.293,20.293,0,0,0,4.143,5.285A20.292,20.292,0,0,0,16.4,21.672l.314.174a1.674,1.674,0,0,0,2.144-.442l1.7-2.184a.733.733,0,0,1,.985-.162l5.8,3.869a.728.728,0,0,1,.224.985" transform="translate(0.04 -0.016)" fill="#fff"/>
    <path id="Path_50" data-name="Path 50" d="M282.129,69.257a8.13,8.13,0,0,1,8.118,8.118.479.479,0,1,0,.957,0,9.087,9.087,0,0,0-9.076-9.076.479.479,0,0,0,0,.957" transform="translate(-265.881 -64.476)" fill="#fff"/>
    <path id="Path_51" data-name="Path 51" d="M282.129,120.457a5.263,5.263,0,0,1,5.252,5.252.479.479,0,1,0,.957,0,6.22,6.22,0,0,0-6.209-6.209.479.479,0,0,0,0,.957" transform="translate(-265.881 -112.809)" fill="#fff"/>
    <path id="Path_52" data-name="Path 52" d="M282.223,171.752a2.391,2.391,0,0,1,2.391,2.391.479.479,0,1,0,.957,0,3.348,3.348,0,0,0-3.343-3.343.479.479,0,0,0,0,.957" transform="translate(-265.975 -161.237)" fill="#fff"/>
  </g>
</svg>
